<svg xmlns="http://www.w3.org/2000/svg" xmlns:xlink="http://www.w3.org/1999/xlink" width="296" height="138" viewBox="0 0 296 138" fill="none"><g opacity="1"  transform="translate(0 0)  rotate(0)"><rect fill="#FFFFFF" opacity="1" transform="translate(0 0)  rotate(0)" x="0" y="0" width="296" height="138" /><mask id="bg-mask-0" fill="white"><use xlink:href="#path_0"></use></mask><g mask="url(#bg-mask-0)" ><path id="矩形 1" fill-rule="evenodd" style="fill:#FFFFFF" opacity="1" d="M14 128L282 128C284.21 128 286 126.21 286 124L286 14C286 11.79 284.21 10 282 10L14 10C11.79 10 10 11.79 10 14L10 124C10 126.21 11.79 128 14 128Z"></path><path  id="矩形 1" style="fill:#EEF0F1; opacity:1;" d="M14,127.75h268c0.50867,0 0.99533,-0.098 1.46,-0.294c0.44867,-0.19 0.846,-0.458 1.192,-0.804c0.346,-0.346 0.614,-0.74333 0.804,-1.192c0.196,-0.46467 0.294,-0.95133 0.294,-1.46v-110c0,-0.509 -0.098,-0.99567 -0.294,-1.46c-0.19,-0.4486 -0.458,-0.84593 -0.804,-1.192c-0.346,-0.346 -0.74333,-0.61383 -1.192,-0.8035c-0.46467,-0.19633 -0.95133,-0.2945 -1.46,-0.2945h-268c-0.509,0 -0.99567,0.09817 -1.46,0.2945c-0.44867,0.18967 -0.846,0.4575 -1.192,0.8035c-0.346,0.346 -0.61383,0.74333 -0.8035,1.192c-0.19633,0.46433 -0.2945,0.951 -0.2945,1.46v110c0,0.50867 0.09817,0.99533 0.2945,1.46c0.18967,0.44867 0.4575,0.846 0.8035,1.192c0.34607,0.346 0.7434,0.614 1.192,0.804c0.46433,0.196 0.951,0.294 1.46,0.294zM14,128.25c-0.57653,0 -1.1281,-0.11133 -1.6547,-0.334c-0.50853,-0.21467 -0.9588,-0.518 -1.3508,-0.91c-0.392,-0.392 -0.6955,-0.84233 -0.9105,-1.351c-0.22267,-0.52667 -0.334,-1.07833 -0.334,-1.655v-110c0,-0.57653 0.11133,-1.1281 0.334,-1.6547c0.215,-0.50853 0.5185,-0.9588 0.9105,-1.3508c0.392,-0.392 0.84227,-0.6955 1.3508,-0.9105c0.5266,-0.22267 1.07817,-0.334 1.6547,-0.334h268c0.57667,0 1.12833,0.11133 1.655,0.334c0.508,0.215 0.95833,0.5185 1.351,0.9105c0.392,0.39193 0.69533,0.8422 0.91,1.3508c0.22267,0.5266 0.334,1.07817 0.334,1.6547v110c0,0.57667 -0.11133,1.12833 -0.334,1.655c-0.21467,0.50867 -0.518,0.959 -0.91,1.351c-0.39267,0.392 -0.843,0.69533 -1.351,0.91c-0.52667,0.22267 -1.07833,0.334 -1.655,0.334z"></path><g opacity="1"  transform="translate(130 31)  rotate(0)"><mask id="bg-mask-1" fill="white"><use xlink:href="#path_1"></use></mask><g mask="url(#bg-mask-1)" ><g opacity="1"  transform="translate(0 0)  rotate(0)"><g opacity="1"  transform="translate(0 0)  rotate(0)"><path id="路径 1" fill-rule="evenodd" style="fill:#FFFFFF" opacity="1" d="M4 45L32 45C34.21 45 36 43.21 36 41L36 12.17C36 11.08 35.56 10.05 34.78 9.3L26.36 1.13C25.62 0.4 24.62 0 23.58 0L4 0C1.79 0 0 1.79 0 4L0 41C0 43.21 1.79 45 4 45Z"></path><path id="路径 2" fill-rule="evenodd" style="fill:#F1572D" opacity="1" d="M0,41v-37c0,-2.21 1.79,-4 4,-4h19.58c1.04,0 2.04,0.4 2.78,1.13l8.42,8.17c0.78,0.75 1.22,1.78 1.22,2.87v28.83c0,2.21 -1.79,4 -4,4h-28c-2.21,0 -4,-1.79 -4,-4zM2.59,42.41c0.39,0.39 0.86,0.59 1.41,0.59h28c0.55,0 1.02,-0.2 1.41,-0.59c0.39,-0.39 0.59,-0.86 0.59,-1.41v-28.83c0,-0.57 -0.2,-1.05 -0.61,-1.44l-8.42,-8.17c-0.39,-0.37 -0.85,-0.56 -1.39,-0.56h-19.58c-0.55,0 -1.02,0.2 -1.41,0.59c-0.39,0.39 -0.59,0.86 -0.59,1.41v37c0,0.55 0.2,1.02 0.59,1.41z"></path></g><g opacity="1"  transform="translate(0 0)  rotate(0)"><path id="路径 3" fill-rule="evenodd" style="fill:#F1572D" opacity="1" d="M17,13.0645c0,-0.07 0.01,-0.13 0.02,-0.2c0.01,-0.06 0.03,-0.12 0.06,-0.18c0.02,-0.06 0.05,-0.12 0.09,-0.18c0.04,-0.05 0.08,-0.1 0.12,-0.15c0.05,-0.04 0.1,-0.08 0.15,-0.12c0.06,-0.04 0.12,-0.07 0.18,-0.09c0.06,-0.03 0.12,-0.05 0.18,-0.06c0.07,-0.01 0.13,-0.02 0.2,-0.02c0.07,0 0.13,0.01 0.2,0.02c0.06,0.01 0.12,0.03 0.18,0.06c0.06,0.02 0.12,0.05 0.18,0.09c0.05,0.04 0.1,0.08 0.15,0.12c0.04,0.05 0.08,0.1 0.12,0.15c0.04,0.06 0.07,0.12 0.09,0.18c0.03,0.06 0.05,0.12 0.06,0.18c0.01,0.07 0.02,0.13 0.02,0.2v9.19l-9.37,7.56c-0.09,0.07 -0.19,0.12 -0.3,0.16c-0.1,0.04 -0.22,0.06 -0.33,0.06c-0.07,0 -0.13,-0.01 -0.2,-0.02c-0.06,-0.01 -0.12,-0.03 -0.18,-0.06c-0.06,-0.02 -0.12,-0.05 -0.18,-0.09c-0.05,-0.04 -0.1,-0.08 -0.15,-0.13c-0.04,-0.04 -0.08,-0.09 -0.12,-0.15c-0.04,-0.05 -0.07,-0.11 -0.09,-0.17c-0.03,-0.06 -0.05,-0.12 -0.06,-0.19c-0.01,-0.06 -0.02,-0.13 -0.02,-0.19c0,-0.08 0.01,-0.15 0.02,-0.22c0.02,-0.08 0.05,-0.15 0.08,-0.21c0.03,-0.07 0.07,-0.13 0.12,-0.19c0.04,-0.06 0.09,-0.11 0.15,-0.16l8.63,-6.96z"></path></g><g opacity="1"  transform="translate(0 0)  rotate(0)"><path id="路径 4" fill-rule="evenodd" style="fill:#F1572D" opacity="1" d="M18.63,20.9942l9,7.26c0.06,0.05 0.11,0.1 0.15,0.16c0.05,0.06 0.09,0.12 0.12,0.19c0.03,0.06 0.06,0.13 0.08,0.21c0.01,0.07 0.02,0.14 0.02,0.22c0,0.06 -0.01,0.13 -0.02,0.19c-0.01,0.07 -0.03,0.13 -0.06,0.19c-0.02,0.06 -0.05,0.12 -0.09,0.17c-0.04,0.06 -0.08,0.11 -0.12,0.16c-0.05,0.04 -0.1,0.08 -0.15,0.12c-0.06,0.04 -0.12,0.07 -0.18,0.09c-0.06,0.03 -0.12,0.05 -0.18,0.06c-0.07,0.01 -0.13,0.02 -0.2,0.02c-0.11,0 -0.23,-0.02 -0.33,-0.06c-0.11,-0.04 -0.21,-0.09 -0.3,-0.16l-9,-7.26c-0.06,-0.05 -0.11,-0.1 -0.15,-0.16c-0.05,-0.06 -0.09,-0.12 -0.12,-0.19c-0.03,-0.07 -0.06,-0.14 -0.08,-0.21c-0.01,-0.07 -0.02,-0.15 -0.02,-0.22c0,-0.07 0.01,-0.13 0.02,-0.2c0.01,-0.06 0.03,-0.12 0.06,-0.18c0.02,-0.06 0.05,-0.12 0.09,-0.18c0.04,-0.05 0.08,-0.1 0.12,-0.15c0.05,-0.04 0.1,-0.08 0.15,-0.12c0.06,-0.04 0.12,-0.07 0.18,-0.09c0.06,-0.03 0.12,-0.05 0.18,-0.06c0.07,-0.01 0.13,-0.02 0.2,-0.02c0.11,0 0.23,0.02 0.33,0.06c0.11,0.04 0.21,0.09 0.3,0.16z"></path></g></g></g></g></g></g><defs><rect id="path_0" x="0" y="0" width="296" height="138" /><rect id="path_1" x="0" y="0" width="36" height="45" /></defs></svg>